<?xml version="1.0" encoding="utf-8"?>
<!-- Generator: Adobe Illustrator 22.1.0, SVG Export Plug-In . SVG Version: 6.00 Build 0)  -->
<svg version="1.1" xmlns="http://www.w3.org/2000/svg" xmlns:xlink="http://www.w3.org/1999/xlink" x="0px" y="0px"
	 viewBox="0 0 300 300" style="enable-background:new 0 0 300 300;" xml:space="preserve">
<style type="text/css">
	.st0{fill:url(#SVGID_1_);}
	.st1{fill:url(#SVGID_2_);}
	.st2{fill:url(#SVGID_3_);}
	.st3{fill:#FFFFFF;}
	.st4{fill:none;}
	.st5{opacity:0.25;fill:#FFFFFF;}
	.st6{display:none;}
</style>
<g id="Layer_1">
	<g>
		<g>
			<linearGradient id="SVGID_1_" gradientUnits="userSpaceOnUse" x1="50" y1="162.4856" x2="247.7116" y2="162.4856">
				<stop  offset="0" style="stop-color:#8BC249"/>
				<stop  offset="0.5" style="stop-color:#0DBCD4"/>
				<stop  offset="1" style="stop-color:#39A4DD"/>
			</linearGradient>
			<path class="st0" d="M243.5,146.9v28.3c0,1.8-0.2,3.5-0.4,5.1c3-9.6,4.6-19.8,4.6-30.3c0-1.8-0.1-3.6-0.1-5.4h-1.9
				C244.3,144.6,243.5,145.4,243.5,146.9z"/>
			<linearGradient id="SVGID_2_" gradientUnits="userSpaceOnUse" x1="50" y1="159.966" x2="247.7116" y2="159.966">
				<stop  offset="0" style="stop-color:#8BC249"/>
				<stop  offset="0.5" style="stop-color:#0DBCD4"/>
				<stop  offset="1" style="stop-color:#39A4DD"/>
			</linearGradient>
			<path class="st1" d="M143.8,148h-0.2c0,0-1.5,7.4-2.9,11.9l-3.6,12h13.2l-3.6-12C145.3,155.4,143.8,148,143.8,148z"/>
			<linearGradient id="SVGID_3_" gradientUnits="userSpaceOnUse" x1="50" y1="150" x2="247.7116" y2="150">
				<stop  offset="0" style="stop-color:#8BC249"/>
				<stop  offset="0.5" style="stop-color:#0DBCD4"/>
				<stop  offset="1" style="stop-color:#39A4DD"/>
			</linearGradient>
			<path class="st2" d="M214.2,203c-17.9,0-29.5-11.5-29.5-27.8v-28.3c0-1.4-0.8-2.2-2.2-2.2h-4.3v-15.2h17.1c5.1,0,7.3,2.2,7.3,7.4
				v37.9c0,7.6,4.7,11.6,11.5,11.6s11.5-4,11.5-11.6v-37.9c0-5.2,2.2-7.4,7.3-7.4h12.7C236.2,84.1,196.5,50,148.9,50
				C94.3,50,50,94.8,50,150c0,55.2,44.3,100,98.9,100c40.2,0,74.8-24.3,90.2-59.2C234.2,198.4,225.4,203,214.2,203z M107.3,114.4
				c0,0-1.3-0.2-3-0.2c-3.5,0-8.7,1-8.7,6.5v14.1c0,12.3-10,15.3-10,15.3v0.2c0,0,10,2.5,10,15.2v15.3c0,5.5,5.2,6.5,8.7,6.5
				c1.7,0,3-0.2,3-0.2v14.9c0,0-2.1,0.2-5.1,0.2c-8.3,0-23.7-2.3-23.7-19.5v-11.8c0-11.6-10.1-11.6-10.1-11.6v-18.1
				c0,0,10.1,0,10.1-11.9v-10.6c0-17.2,15.3-19.5,23.7-19.5c3,0,5.1,0.2,5.1,0.2V114.4z M177.2,201.8h-11.5c-5,0-7-1.5-8.4-5.9
				l-3.1-9.3h-20.8l-3.1,9.3c-1.4,4.4-3.4,5.9-8.4,5.9h-11.5v-15.2h1.9c1.6,0,2.1-0.5,2.7-2.2l19.5-55H153l19.5,55
				c0.6,1.7,1.1,2.2,2.7,2.2h1.9V201.8z"/>
			<path class="st3" d="M243.1,180.3c-1.1,3.6-2.5,7.1-4,10.5C241.1,187.8,242.4,184.2,243.1,180.3z"/>
		</g>
		<g>
			<polygon class="st4" points="150.3,172 148.9,167 148.9,172 			"/>
			<path class="st5" d="M130.2,195.9c-1.4,4.4-3.4,5.9-8.4,5.9h-11.5v-15.2h1.9c1.6,0,2.1-0.5,2.7-2.2l19.5-55h14.4V50
				C94.3,50,50,94.8,50,150s44.3,100,98.9,100v-63.4h-15.5L130.2,195.9z M107.3,114.4c0,0-1.3-0.2-3-0.2c-3.5,0-8.7,1-8.7,6.5v14.1
				c0,12.3-10,15.3-10,15.3v0.2c0,0,10,2.5,10,15.2v15.3c0,5.5,5.2,6.5,8.7,6.5c1.7,0,3-0.2,3-0.2v14.9c0,0-2.1,0.2-5.1,0.2
				c-8.3,0-23.7-2.3-23.7-19.5v-11.8c0-11.6-10.1-11.6-10.1-11.6v-18.1c0,0,10.1,0,10.1-11.9v-10.6c0-17.2,15.3-19.5,23.7-19.5
				c3,0,5.1,0.2,5.1,0.2V114.4z"/>
			<path class="st5" d="M143.8,148h-0.2c0,0-1.5,7.4-2.9,11.9l-3.6,12h11.7v-5l-2.1-7.1C145.3,155.4,143.8,148,143.8,148z"/>
		</g>
		<g>
			<path class="st4" d="M137.1,172h13.2l-3.6-12c-0.9-3.1-1.9-7.4-2.5-9.9h-1.1c-0.5,2.5-1.5,6.9-2.5,9.9L137.1,172z"/>
			<path class="st5" d="M182.5,144.6h-4.3v-15.2h17.1c5.1,0,7.3,2.2,7.3,7.4V150h23v-13.2c0-5.2,2.2-7.4,7.3-7.4h12.7
				C236.2,84.1,196.5,50,148.9,50C94.3,50,50,94.8,50,150h18.4v-8.7c0,0,10.1,0,10.1-11.9v-10.6c0-17.2,15.3-19.5,23.7-19.5
				c3,0,5.1,0.2,5.1,0.2v14.9c0,0-1.3-0.2-3-0.2c-3.5,0-8.7,1-8.7,6.5v14.1c0,11.3-8.5,14.8-9.8,15.2h41.3l7.3-20.5H153l7.3,20.5
				h24.3v-3.1C184.7,145.4,183.9,144.6,182.5,144.6z"/>
			<path class="st5" d="M143.8,148h-0.2c0,0-0.2,0.8-0.4,2h1.1C144,148.8,143.8,148,143.8,148z"/>
			<path class="st5" d="M243.5,146.9v3.1h4.2c0-1.8-0.1-3.6-0.1-5.4h-1.9C244.3,144.6,243.5,145.4,243.5,146.9z"/>
		</g>
	</g>
</g>
<g id="Layer_2" class="st6">
</g>
</svg>
